<svg width="24" height="24" viewBox="0 0 24 24" fill="none" xmlns="http://www.w3.org/2000/svg">
<path d="M20.6315 16.5881C20.1009 15.675 19.3125 13.0997 19.3125 9.75C19.3125 7.81061 18.542 5.95064 17.1707 4.57928C15.7993 3.20792 13.9394 2.4375 12 2.4375C10.0606 2.4375 8.2006 3.20792 6.82924 4.57928C5.45788 5.95064 4.68746 7.81061 4.68746 9.75C4.68746 13.1006 3.89809 15.675 3.36746 16.5881C3.25104 16.7875 3.18926 17.014 3.18836 17.2449C3.18747 17.4758 3.24748 17.7028 3.36235 17.903C3.47722 18.1033 3.64288 18.2697 3.84262 18.3855C4.04235 18.5013 4.26909 18.5623 4.49996 18.5625H8.48246C8.61909 19.3964 9.04766 20.1545 9.69164 20.7016C10.3356 21.2486 11.1531 21.549 11.9981 21.549C12.8431 21.549 13.6605 21.2486 14.3045 20.7016C14.9485 20.1545 15.3771 19.3964 15.5137 18.5625H19.5C19.7307 18.562 19.9572 18.5007 20.1567 18.3848C20.3561 18.2689 20.5215 18.1024 20.6362 17.9022C20.7508 17.702 20.8107 17.4751 20.8097 17.2444C20.8087 17.0137 20.7469 16.7874 20.6306 16.5881H20.6315ZM12 20.4375C11.4514 20.4373 10.919 20.2521 10.4888 19.9119C10.0585 19.5716 9.75561 19.0962 9.62902 18.5625H14.3709C14.2443 19.0962 13.9414 19.5716 13.5112 19.9119C13.0809 20.2521 12.5485 20.4373 12 20.4375ZM19.6603 17.3438C19.6448 17.3725 19.6218 17.3964 19.5937 17.4129C19.5656 17.4295 19.5335 17.438 19.5009 17.4375H4.49996C4.46736 17.438 4.43526 17.4295 4.40716 17.4129C4.37906 17.3964 4.35603 17.3725 4.34059 17.3438C4.32413 17.3152 4.31547 17.2829 4.31547 17.25C4.31547 17.2171 4.32413 17.1848 4.34059 17.1563C5.05028 15.9375 5.81246 13.0959 5.81246 9.75C5.81246 8.10897 6.46436 6.53516 7.62474 5.37478C8.78512 4.2144 10.3589 3.5625 12 3.5625C13.641 3.5625 15.2148 4.2144 16.3752 5.37478C17.5356 6.53516 18.1875 8.10897 18.1875 9.75C18.1875 13.095 18.9506 15.9328 19.6603 17.1563C19.6767 17.1848 19.6854 17.2171 19.6854 17.25C19.6854 17.2829 19.6767 17.3152 19.6603 17.3438Z" fill="#4B4B4B"/>
</svg>
