<svg width="192" height="75" viewBox="0 0 192 75" fill="none" xmlns="http://www.w3.org/2000/svg">
<path d="M0.895996 47.0133C1.55022 36.688 2.00533 26.6898 2.26133 17.0187C2.26133 16.9333 2.27555 16.7058 2.304 16.336C2.36089 15.9378 2.40355 15.568 2.432 15.2267C2.48889 14.8853 2.51733 14.6436 2.51733 14.5013C2.60266 13.8187 2.80177 13.3778 3.11466 13.1787C3.456 12.9227 3.82577 12.7236 4.224 12.5813C4.30933 12.5529 4.43733 12.5102 4.608 12.4533C4.80711 12.3964 4.94933 12.3538 5.03466 12.3253C8.56177 11.2729 12.1742 11.2871 15.872 12.368C21.248 13.9324 24.4764 16.9902 25.5573 21.5413C26.4676 25.2676 25.9982 28.368 24.1493 30.8427C22.4996 33.0329 20.0818 34.256 16.896 34.512C15.2462 34.6258 14.464 35.6071 14.5493 37.456C14.5493 37.4844 14.5493 37.6551 14.5493 37.968C14.5493 38.2809 14.5493 38.6649 14.5493 39.12C14.5493 39.5751 14.5493 40.016 14.5493 40.4427C14.5493 40.8693 14.5493 41.2533 14.5493 41.5947C14.5493 41.936 14.5493 42.1067 14.5493 42.1067C14.5778 42.9031 14.6204 43.8987 14.6773 45.0933C14.7342 46.3164 14.208 47.0418 13.0987 47.2693C11.1929 47.6107 10.1547 47.7813 9.984 47.7813C9.84177 47.8098 7.32444 47.9093 2.432 48.08C2.09066 48.1084 1.74933 48.0089 1.408 47.7813C1.06666 47.5538 0.895996 47.2978 0.895996 47.0133ZM15.3173 24.6133C15.5449 23.9591 15.232 23.4471 14.3787 23.0773C13.5538 22.7076 12.6578 22.5653 11.6907 22.6507C11.3778 22.6791 10.9369 22.7502 10.368 22.864C10.112 22.9209 9.94133 23.1058 9.856 23.4187C9.79911 23.7031 9.77066 24.1724 9.77066 24.8267C9.79911 25.424 9.81333 25.8364 9.81333 26.064C9.81333 26.2631 9.856 26.5191 9.94133 26.832C10.0267 27.1449 10.112 27.3298 10.1973 27.3867C10.4249 27.5858 10.8658 27.6569 11.52 27.6C11.7476 27.6 12.1458 27.5716 12.7147 27.5147C13.6533 27.4578 14.3218 27.216 14.72 26.7893C15.1182 26.3342 15.3173 25.6089 15.3173 24.6133Z" fill="#90D1BE"/>
<path d="M29.5571 17.6587C32.1456 16.7484 34.8478 16.7484 37.6638 17.6587C39.2282 18.1707 40.0105 19.1947 40.0105 20.7307C40.0389 27.3582 40.0389 32.7627 40.0105 36.944C39.982 38.1956 39.7829 39.0062 39.4131 39.376C39.0718 39.7458 38.2753 40.016 37.0238 40.1867C36.9385 40.2151 36.6113 40.272 36.0425 40.3573C35.502 40.4711 34.99 40.5707 34.5065 40.656C34.0513 40.7413 33.71 40.784 33.4825 40.784C33.0842 40.8409 32.6433 40.6418 32.1598 40.1867C31.6762 39.76 31.2922 39.3191 31.0078 38.864C30.5811 38.2098 30.2967 37.456 30.1545 36.6027C30.0122 35.7778 29.9127 34.7111 29.8558 33.4027C29.8273 33.2036 29.8131 33.0471 29.8131 32.9333C29.7562 31.312 29.6709 27.856 29.5571 22.5653V17.6587ZM28.4478 4.00533C28.7607 3.92 29.2727 3.77778 29.9838 3.57867C30.7233 3.37956 31.3918 3.20889 31.9891 3.06667C32.5865 2.92444 33.1269 2.81067 33.6105 2.72533C34.8905 2.55467 35.8433 2.92444 36.4691 3.83467C37.0949 4.71644 37.4078 5.91111 37.4078 7.41867C37.4078 8.24356 37.3082 9.22489 37.1091 10.3627C37.0238 10.8747 36.9811 11.1876 36.9811 11.3013C36.8673 12.0124 36.3127 12.3822 35.3171 12.4107C32.9847 12.496 31.3776 12.5387 30.4958 12.5387C30.0407 12.4818 29.6709 12.24 29.3865 11.8133C28.2202 9.79378 27.8647 7.66044 28.3198 5.41333C28.3198 5.38489 28.3625 4.91556 28.4478 4.00533Z" fill="#90D1BE"/>
<path d="M63.7188 18.1707C62.3819 16.6916 60.8459 16.0373 59.1108 16.208C58.7411 16.2364 58.3997 16.3644 58.0868 16.592C57.7739 16.7911 57.4468 17.0756 57.1055 17.4453C56.7926 17.7867 56.5508 18.0142 56.3802 18.128C54.3322 20.0338 53.5215 22.4089 53.9482 25.2533C54.2042 27.0169 55.2566 28.24 57.1055 28.9227C59.4379 29.776 61.4006 29.6907 62.9935 28.6667C63.5624 28.2969 64.1171 27.6853 64.6575 26.832C64.8566 26.576 64.9846 26.4338 65.0415 26.4053C65.1268 26.3484 65.3402 26.3484 65.6815 26.4053C66.3357 26.6613 67.5304 27.088 69.2655 27.6853C69.8913 27.8844 70.3037 28.1262 70.5028 28.4107C70.7019 28.6951 70.7304 29.1787 70.5882 29.8613C70.2468 31.9662 69.3508 33.6871 67.9002 35.024C66.4495 36.3324 64.7997 37.072 62.9508 37.2427C58.3713 37.6124 54.2611 36.9298 50.6202 35.1947C47.4344 33.6587 45.4859 31.0418 44.7748 27.344C44.1775 24.0729 44.3197 20.9298 45.2015 17.9147C46.4531 13.7618 48.6006 10.8604 51.6442 9.21067C52.8104 8.58489 53.8486 8.144 54.7588 7.888C55.6975 7.60356 56.6788 7.54667 57.7028 7.71733C60.0068 8.11555 62.3393 8.69867 64.7002 9.46667C65.525 9.72267 66.2077 10.4196 66.7482 11.5573C66.8051 11.6711 67.2033 12.5529 67.9428 14.2027L63.7188 18.1707Z" fill="#90D1BE"/>
<path d="M76.0183 6.30933C76.0752 6.30933 76.1605 6.32355 76.2743 6.352C76.3881 6.38044 76.4592 6.39467 76.4876 6.39467C77.1418 6.19556 77.7818 6.05333 78.4076 5.968C79.2325 5.93956 80.9107 5.93956 83.4423 5.968C83.9827 5.968 84.3241 6.05333 84.4663 6.224C84.6085 6.36622 84.637 6.69333 84.5516 7.20533C83.9827 11.2729 83.7267 15.1556 83.7836 18.8533C83.8405 19.3084 83.7836 19.9769 83.613 20.8587C83.4423 21.7404 83.3427 22.2809 83.3143 22.48C85.789 20.944 88.9747 18.8676 92.8716 16.2507C93.0138 16.1938 93.1987 16.1796 93.4263 16.208C93.6538 16.2364 93.8103 16.2933 93.8956 16.3787C95.0903 17.4027 95.9294 18.1849 96.413 18.7253C96.8965 19.2658 97.693 20.304 98.8023 21.84C99.1436 22.2667 99.2858 22.608 99.229 22.864C99.2005 23.0916 98.973 23.3333 98.5463 23.5893C94.5641 25.7511 91.5205 27.4009 89.4156 28.5387C90.4112 29.9893 92.0041 31.44 94.1943 32.8907L95.3036 33.7013C95.8156 34.0996 96.2138 34.384 96.4983 34.5547C96.7827 34.7253 96.925 34.8818 96.925 35.024C96.925 35.1947 96.8112 35.3796 96.5836 35.5787C96.413 35.7493 96.0574 36.0907 95.517 36.6027C94.9765 37.1147 94.5072 37.5698 94.109 37.968C93.7107 38.3947 93.3836 38.7787 93.1276 39.12C92.3027 40.2578 91.2076 40.4711 89.8423 39.76C89.7285 39.7031 89.4867 39.5751 89.117 39.376C88.7472 39.2053 88.4912 39.0773 88.349 38.992C88.2067 38.9067 88.0076 38.7787 87.7516 38.608C87.4956 38.4373 87.2681 38.2667 87.069 38.096C86.8983 37.9253 86.7276 37.7262 86.557 37.4987C86.2156 36.9867 85.6467 36.3893 84.8503 35.7067C84.0538 35.0524 83.5276 34.5973 83.2716 34.3413L82.6316 34.128C82.4894 36.7164 82.3756 38.7929 82.2903 40.3573H79.645C77.853 40.3858 76.4592 40.4284 75.4636 40.4853C74.8947 40.5138 74.5534 40.4569 74.4396 40.3147C74.3258 40.1724 74.2832 39.8027 74.3116 39.2053C74.3116 32.72 74.3543 28.9227 74.4396 27.8133C74.4681 27.216 74.5392 25.808 74.653 23.5893C74.7952 21.3422 74.8947 20.0196 74.9516 19.6213C75.1792 15.6391 75.4067 11.6427 75.6343 7.632C75.6627 7.57511 75.6627 7.504 75.6343 7.41867C75.6343 7.30489 75.6201 7.19111 75.5916 7.07733C75.5916 6.93511 75.5916 6.84978 75.5916 6.82133C75.5916 6.65067 75.5916 6.55111 75.5916 6.52267C75.6201 6.46578 75.6627 6.42311 75.7196 6.39467C75.7765 6.33778 75.8761 6.30933 76.0183 6.30933Z" fill="#90D1BE"/>
<path d="M109.982 29.008C109.982 28.9227 109.996 28.7378 110.025 28.4533C110.053 28.1404 110.067 27.9556 110.067 27.8987C110.067 27.4151 109.015 25.4951 106.91 22.1387C106.398 21.3138 105.986 20.6453 105.673 20.1333C105.36 19.6213 105.061 19.1236 104.777 18.64C104.492 18.128 104.293 17.7582 104.179 17.5307C104.066 17.2747 103.909 16.9333 103.71 16.5067C103.511 16.0516 103.369 15.7244 103.283 15.5253C103.198 15.2978 103.027 14.8711 102.771 14.2453C102.544 13.5911 102.345 13.0364 102.174 12.5813C103.255 12.496 103.824 12.4533 103.881 12.4533C104.933 12.4533 107.394 12.3964 111.262 12.2827C111.945 12.2542 112.414 12.5529 112.67 13.1787C112.898 13.7476 113.495 15.2267 114.462 17.616C115.429 19.9769 116.083 21.6267 116.425 22.5653C117.847 21.0578 118.985 19.2942 119.838 17.2747C120.094 16.6773 120.748 15.0844 121.801 12.496C122.057 11.8702 122.512 11.5716 123.166 11.6C124.503 11.6569 126.693 11.7138 129.737 11.7707C130.163 11.7707 130.462 11.8844 130.633 12.112C130.832 12.3396 130.832 12.6524 130.633 13.0507C129.296 16.1227 128.243 18.3556 127.475 19.7493C126.736 21.1147 125.57 22.9778 123.977 25.3387C123.351 26.2489 122.981 27.3867 122.867 28.752C122.839 28.9796 122.768 29.5911 122.654 30.5867C122.569 31.5538 122.469 32.6204 122.355 33.7867C122.27 34.9244 122.227 35.536 122.227 35.6213C122.171 36.6453 122.142 37.9822 122.142 39.632C122.142 39.6604 122.099 39.9876 122.014 40.6133C115.415 40.5849 111.618 40.5707 110.622 40.5707C110.025 40.5707 109.641 40.4853 109.47 40.3147C109.328 40.144 109.299 39.76 109.385 39.1627C109.982 35.408 110.181 32.0231 109.982 29.008Z" fill="#90D1BE"/>
<path d="M181.877 0C187.468 0 192 4.66134 192 10.4114V33.019C192 38.769 187.468 43.4304 181.877 43.4304H157.166L151.51 46.8953C151.398 46.9638 151.27 47 151.14 47H150.893C150.494 47 150.17 46.667 150.17 46.2563V42.1009C147.085 40.3171 145 36.9185 145 33.019V10.4114C145 4.66134 149.532 5.39007e-08 155.123 0H181.877Z" fill="#90D1BE"/>
<path d="M174.357 31.1412C176.33 30.3952 180.192 30.4565 182.024 30.5355C182.594 30.5601 183.034 31.0457 183.034 31.6324C183.034 32.338 182.442 32.5683 181.757 32.5291C179.91 32.4231 176.481 32.3636 174.357 33.167C172.941 33.7024 172.325 34.2188 171.175 35.0577C170.388 35.6324 169.458 36.8776 168.95 37.6048C168.767 37.8658 168.379 37.8646 168.197 37.6027C167.689 36.8681 166.755 35.6091 165.969 35.0577C164.729 34.1881 164.256 33.6358 162.788 33.167C161.207 32.6623 157.272 32.6075 155.291 32.614C154.642 32.6162 154.111 32.2998 154.111 31.6324C154.111 31.054 154.559 30.5829 155.121 30.5807C157.04 30.5734 161.161 30.6218 162.788 31.1412C164.256 31.6101 165.018 32.1623 166.258 33.0319C167.006 33.5562 167.764 34.4898 168.2 35.0747C168.385 35.323 168.762 35.3246 168.948 35.0774C169.384 34.5 170.138 33.5778 170.886 33.0319C172.035 32.1931 172.941 31.6767 174.357 31.1412Z" fill="#F3FCF9"/>
<path d="M178.406 9.07279C180.962 9.07279 183.034 11.2037 183.034 13.8323V22.1931C183.034 24.0891 181.324 25.516 179.485 25.3802C177.765 25.2533 175.772 25.2904 174.357 25.8797C172.941 26.4695 172.325 26.9209 171.175 27.962C170.386 28.5966 169.453 29.9735 168.946 30.7735C168.77 31.0511 168.366 31.0568 168.184 30.783C167.661 29.9936 166.709 28.6282 165.969 27.962C164.812 26.9209 164.256 26.3961 162.788 25.8797C161.619 25.4686 160.014 25.5039 158.791 25.6221C157.605 25.7368 156.499 26.2426 155.523 26.9456L155.248 27.143C154.769 27.488 154.111 27.1353 154.111 26.5337V13.8323C154.111 11.2037 156.183 9.07279 158.738 9.07279H178.406Z" fill="#F3FCF9"/>
<path d="M12.608 67.128H18.272V65.496H14.224V60.712H23.76V61.816H15.584V64.376H23.888V65.496H19.664V67.128H25.344V68.232H12.608V67.128ZM14.016 70.68V69.56H23.792V74.312H22.4V70.68H14.016Z" fill="#828A8A"/>
<path d="M32.8164 64.856H36.0164V60.104H37.3924V74.232H36.0164V65.992H32.8164V64.856ZM25.7444 70.136C27.8404 69.112 29.3764 66.392 29.3764 63.784V61.32H30.7524V63.784C30.7524 66.344 32.2564 68.92 34.3364 69.896L33.5204 71.016C31.9364 70.2 30.7044 68.568 30.0804 66.616C29.4564 68.68 28.1924 70.408 26.6084 71.256L25.7444 70.136Z" fill="#828A8A"/>
<path d="M51.4162 60.12H52.8082V63.496H54.8722V64.648H52.8082V68.088H51.4162V60.12ZM41.8482 67.16C45.2242 66.264 47.2402 64.44 47.4802 62.136H42.4722V61.016H48.9682C48.9682 64.6 46.5202 67.144 42.3762 68.264L41.8482 67.16ZM43.9122 74.008V68.728H52.8082V74.008H43.9122ZM45.2722 72.888H51.4482V69.848H45.2722V72.888Z" fill="#828A8A"/>
<path d="M58.4406 60.856H59.8006V62.376C59.8006 64.264 61.1446 66.008 63.1926 66.712L62.4726 67.784C60.9366 67.224 59.7526 66.088 59.1446 64.648C58.5526 66.28 57.3526 67.544 55.7046 68.184L54.9526 67.08C57.1286 66.296 58.4406 64.392 58.4406 62.28V60.856ZM56.8566 71.608C56.8566 69.976 58.6166 69.016 61.4966 69.016C64.3926 69.016 66.1366 69.976 66.1366 71.608C66.1366 73.24 64.3926 74.184 61.4966 74.184C58.6166 74.184 56.8566 73.24 56.8566 71.608ZM58.2166 71.608C58.2166 72.552 59.4486 73.096 61.4966 73.096C63.5446 73.096 64.7766 72.552 64.7766 71.608C64.7766 70.648 63.5446 70.104 61.4966 70.104C59.4486 70.104 58.2166 70.648 58.2166 71.608ZM64.6006 68.648V60.136H65.9926V63.72H68.0566V64.872H65.9926V68.648H64.6006Z" fill="#828A8A"/>
<path d="M74.585 60.376C77.705 60.376 79.561 61.224 79.561 62.792C79.561 64.376 77.705 65.24 74.585 65.24C71.481 65.24 69.609 64.376 69.609 62.792C69.609 61.224 71.481 60.376 74.585 60.376ZM68.233 67.256V66.136H80.953V67.256H68.233ZM69.753 69.464V68.392H79.321V71.624H71.145V72.984H79.753V74.056H69.801V70.632H77.977V69.464H69.753ZM71.049 62.792C71.049 63.704 72.329 64.2 74.585 64.2C76.841 64.2 78.137 63.704 78.137 62.792C78.137 61.912 76.841 61.4 74.585 61.4C72.329 61.4 71.049 61.912 71.049 62.792Z" fill="#828A8A"/>
<path d="M90.6089 69.016C93.6169 69.016 95.5369 69.992 95.5369 71.608C95.5369 73.224 93.6169 74.2 90.6089 74.2C87.6169 74.2 85.7129 73.224 85.7129 71.608C85.7129 69.992 87.6169 69.016 90.6089 69.016ZM84.3209 67.784V66.664H89.4729V63.992H90.8489V66.664H97.0089V67.784H84.3209ZM85.8089 61.96V60.84H95.4089V62.024C95.4089 63.16 95.4089 64.312 95.0249 65.752L93.6809 65.608C94.0489 64.168 94.0489 63.128 94.0489 62.024V61.96H85.8089ZM87.0729 71.608C87.0729 72.552 88.4489 73.128 90.6089 73.128C92.7849 73.128 94.1449 72.552 94.1449 71.608C94.1449 70.648 92.7849 70.072 90.6089 70.072C88.4489 70.072 87.0729 70.648 87.0729 71.608Z" fill="#828A8A"/>
<path d="M97.4892 68.12H110.241V69.272H106.961V74.2H105.553V69.272H102.129V74.2H100.705V69.272H97.4892V68.12ZM98.8812 63.768C98.8812 61.864 100.881 60.696 103.825 60.696C106.785 60.696 108.769 61.864 108.769 63.768C108.769 65.656 106.785 66.84 103.825 66.84C100.881 66.84 98.8812 65.656 98.8812 63.768ZM100.305 63.768C100.305 64.984 101.713 65.72 103.825 65.72C105.937 65.72 107.361 64.984 107.361 63.768C107.361 62.568 105.937 61.8 103.825 61.8C101.713 61.8 100.305 62.568 100.305 63.768Z" fill="#828A8A"/>
<path d="M120.146 60.136H121.538V65.88H123.81V67.032H121.538V74.216H120.146V60.136ZM110.594 63.48V62.36H114.082V60.312H115.49V62.36H118.898V63.48H110.594ZM111.362 67.848C111.362 65.944 112.818 64.6 114.802 64.6C116.802 64.6 118.258 65.944 118.258 67.848C118.258 69.768 116.802 71.096 114.802 71.096C112.818 71.096 111.362 69.768 111.362 67.848ZM112.69 67.848C112.69 69.096 113.57 69.944 114.802 69.944C116.034 69.944 116.914 69.096 116.914 67.848C116.914 66.616 116.034 65.736 114.802 65.736C113.57 65.736 112.69 66.616 112.69 67.848Z" fill="#828A8A"/>
<path d="M125.554 60.632H126.93V64.296H135.154V65.416H125.554V60.632ZM123.858 68.376V67.256H136.61V68.376H123.858ZM125.474 73.88V69.736H126.834V72.744H135.234V73.88H125.474Z" fill="#828A8A"/>
<path d="M139.93 66.088H152.65V67.208H139.93V66.088ZM140.586 64.36C143.146 64.168 145.274 63.112 145.466 61.768H141.098V60.648H151.498V61.768H147.114C147.322 63.112 149.45 64.168 151.994 64.36L151.546 65.432C149.194 65.208 147.146 64.328 146.298 62.968C145.45 64.328 143.402 65.208 141.034 65.432L140.586 64.36ZM141.45 69.464V68.424H151.018V71.672H142.842V72.984H151.45V74.056H141.498V70.664H149.674V69.464H141.45Z" fill="#828A8A"/>
<path d="M163.306 60.136H164.682V74.216H163.306V66.888H160.106V65.736H163.306V60.136ZM153.066 70.488C156.81 68.648 158.506 66.04 158.762 62.76H153.69V61.624H160.154C160.154 65.672 158.538 69.224 153.834 71.56L153.066 70.488Z" fill="#828A8A"/>
<path d="M172.651 60.392C175.707 60.392 177.627 61.384 177.627 63.048C177.627 64.712 175.707 65.688 172.651 65.688C169.595 65.688 167.675 64.712 167.675 63.048C167.675 61.384 169.595 60.392 172.651 60.392ZM166.299 67.832V66.712H179.019V67.832H173.339V69.384H177.467V74.024H167.851V69.384H171.963V67.832H166.299ZM169.099 63.048C169.099 64.024 170.459 64.6 172.651 64.6C174.843 64.6 176.203 64.024 176.203 63.048C176.203 62.04 174.843 61.464 172.651 61.464C170.459 61.464 169.099 62.04 169.099 63.048ZM169.211 72.904H176.107V70.488H169.211V72.904Z" fill="#828A8A"/>
</svg>
