<svg width="276" height="276" viewBox="0 0 276 276" fill="none" xmlns="http://www.w3.org/2000/svg">
<path d="M216.554 0C249.385 0 276 27.373 276 61.1392V193.899C276 227.665 249.385 255.038 216.554 255.038H71.4457L38.2278 275.385C37.5707 275.788 36.8198 276 36.055 276H34.6062C32.2611 276 30.36 274.045 30.36 271.633V247.231C12.2411 236.756 0 216.798 0 193.899V61.1392C0 27.373 26.615 3.16523e-07 59.4462 0H216.554Z" fill="#90D1BE"/>
<path d="M172.394 182.872C183.979 178.491 206.662 178.851 217.418 179.315C220.765 179.46 223.348 182.311 223.348 185.757C223.347 189.9 219.872 191.252 215.85 191.022C205.002 190.399 184.869 190.05 172.394 194.768C164.08 197.912 160.46 200.945 153.711 205.871C149.087 209.246 143.623 216.558 140.641 220.828C139.571 222.361 137.287 222.354 136.224 220.816C133.24 216.502 127.756 209.109 123.138 205.871C115.856 200.764 113.076 197.521 104.455 194.768C95.1753 191.804 72.068 191.482 60.4306 191.521C56.6201 191.533 53.5016 189.676 53.5015 185.757C53.5015 182.36 56.1336 179.593 59.4362 179.58C70.7002 179.537 94.9051 179.822 104.455 182.872C113.076 185.625 117.555 188.868 124.837 193.975C129.227 197.053 133.677 202.536 136.237 205.97C137.324 207.429 139.536 207.438 140.631 205.987C143.19 202.596 147.62 197.18 152.012 193.975C158.761 189.049 164.08 186.016 172.394 182.872Z" fill="#F3FCF9"/>
<path d="M196.172 53.2785C211.181 53.2785 223.348 65.7918 223.348 81.2279V130.325C223.348 141.459 213.305 149.839 202.507 149.041C192.409 148.296 180.703 148.514 172.394 151.975C164.08 155.438 160.46 158.089 153.711 164.203C149.075 167.929 143.595 176.014 140.618 180.712C139.585 182.342 137.212 182.376 136.146 180.768C133.074 176.132 127.486 168.115 123.138 164.203C116.345 158.089 113.076 155.007 104.455 151.975C97.5911 149.56 88.1676 149.768 80.9871 150.462C74.0181 151.135 67.5267 154.105 61.7923 158.234L60.1826 159.393C57.3684 161.419 53.5015 159.348 53.5015 155.815V81.2279C53.5015 65.7918 65.6684 53.2785 80.6769 53.2785H196.172Z" fill="#F3FCF9"/>
</svg>
