<svg width="10" height="10" viewBox="0 0 10 10" fill="none" xmlns="http://www.w3.org/2000/svg">
<path d="M3.90618 0.824087C4.20939 -0.26465 5.75268 -0.26465 6.06373 0.824088C6.24898 1.47251 6.95975 1.8142 7.57981 1.55292C8.62094 1.11423 9.58751 2.32082 8.93109 3.23976C8.54015 3.78705 8.71816 4.55482 9.31078 4.87744C10.3058 5.41914 9.96784 6.92372 8.83825 6.98089C8.1655 7.01493 7.67671 7.63064 7.79563 8.29421C7.99531 9.40839 6.60727 10.078 5.85511 9.23033C5.40715 8.72549 4.61963 8.72549 4.1753 9.23033C3.42924 10.078 2.03638 9.40839 2.22804 8.29421C2.34219 7.63064 1.84896 7.01493 1.17597 6.98089C0.0459739 6.92372 -0.302855 5.41914 0.6883 4.87744C1.2786 4.55482 1.45108 3.78705 1.0562 3.23976C0.393172 2.32082 1.35105 1.11423 2.39534 1.55292C3.01729 1.8142 3.72559 1.47251 3.90618 0.824087Z" fill="#90D1BE"/>
</svg>
