<svg width="80" height="18" viewBox="0 0 80 18" fill="none" xmlns="http://www.w3.org/2000/svg">
<path d="M0.598223 0.827441C0.598223 0.827441 0.664143 0.814461 0.795983 0.788501C0.927823 0.749563 1.08603 0.704135 1.27061 0.652218C1.46837 0.6003 1.65953 0.554872 1.84411 0.515933C2.04187 0.464015 2.21985 0.425077 2.37806 0.399119C2.54945 0.36018 2.65492 0.340711 2.69448 0.340711C5.43675 0.236875 7.23636 0.197937 8.09332 0.223896C9.70177 0.275813 11.0597 0.626258 12.1672 1.27523C12.4704 1.45694 12.767 1.72951 13.0571 2.09294C13.1098 2.17081 13.2219 2.34604 13.3933 2.6186C13.5647 2.89117 13.6701 3.0664 13.7097 3.14427C15.0281 5.07821 15.1863 6.8499 14.1843 8.45936C13.7756 9.09535 13.2812 9.52367 12.7011 9.74432C10.9872 10.4322 9.37876 10.8735 7.87578 11.0682C7.66484 11.0942 7.51322 11.1656 7.42094 11.2824C7.34183 11.3862 7.31546 11.5614 7.34183 11.8081C7.3682 12.1845 7.44071 13.1449 7.55937 14.6895C7.69121 16.234 7.76372 17.0842 7.7769 17.24C7.80327 17.4866 7.76372 17.6553 7.65825 17.7462C7.56596 17.837 7.38798 17.8889 7.1243 17.9019C6.09594 17.9149 5.20603 17.9084 4.45454 17.8824C3.92718 17.8695 2.45717 17.811 0.044496 17.7072C0.00494401 17.6293 -0.00823999 17.545 0.00494398 17.4541C0.031312 17.3633 0.0642719 17.24 0.103824 17.0842C0.143376 16.9414 0.163152 16.8441 0.163152 16.7922C0.268624 14.8452 0.360912 11.9963 0.440016 8.2452C0.4532 7.46643 0.479567 6.23338 0.519119 4.54605C0.571855 2.85872 0.598223 1.61919 0.598223 0.827441ZM5.99707 6.92129C6.28711 7.01215 6.51124 7.07704 6.66945 7.11598C6.82766 7.15492 7.01223 7.17439 7.22318 7.17439C7.43412 7.16141 7.63188 7.103 7.81645 6.99917C7.89556 6.96023 7.96807 6.92129 8.03399 6.88235C8.09991 6.83044 8.15265 6.7915 8.1922 6.76554C8.24493 6.7266 8.29767 6.68117 8.35041 6.62925C8.41633 6.56436 8.46247 6.52542 8.48884 6.51244C8.51521 6.48648 8.56135 6.43456 8.62727 6.35669C8.69319 6.26583 8.73274 6.20742 8.74593 6.18146C8.77229 6.1555 8.82503 6.08412 8.90413 5.9673C8.98324 5.85049 9.03597 5.7791 9.06234 5.75314C9.22055 5.55845 9.25351 5.38323 9.16122 5.22747C9.06893 5.05874 8.90413 4.96788 8.66682 4.9549C8.02081 4.91597 7.2825 4.93544 6.45191 5.01331C6.37281 5.01331 6.28052 5.06523 6.17505 5.16907C6.08276 5.2729 6.03003 5.36376 6.01684 5.44163C6.00366 5.55845 5.99707 6.05167 5.99707 6.92129Z" fill="#90D1BE"/>
<path d="M25.798 5.05225V13.7355L27.6569 13.6576V14.1638C27.7097 15.4877 27.7426 16.273 27.7558 16.5196C27.769 16.7143 27.736 16.8441 27.6569 16.909C27.5778 16.9869 27.4394 17.0323 27.2416 17.0453C24.1302 17.201 21.5 17.3633 19.351 17.532C19.2192 17.545 18.8764 17.6034 18.3227 17.7072C18.0062 17.7591 17.8283 17.6488 17.7887 17.3762C17.6305 16.4677 17.5382 15.5981 17.5118 14.7674C17.4987 14.4948 17.5382 14.3066 17.6305 14.2028C17.736 14.0989 17.9205 14.034 18.1842 14.0081C18.2897 14.0081 18.8171 13.9756 19.7663 13.9107C19.8454 11.4965 19.9443 8.71246 20.0629 5.55845H17.5118C17.3273 3.66345 17.2284 2.63158 17.2152 2.46285C17.1756 2.12538 17.1559 1.70355 17.1559 1.19735C17.1427 0.807971 17.347 0.6003 17.7689 0.574341C20.3398 0.457526 21.9746 0.399119 22.6734 0.399119C23.3062 0.399119 24.651 0.457526 26.7077 0.574341C26.7604 0.587321 26.8263 0.626259 26.9054 0.691156C26.9977 0.756053 27.0439 0.81446 27.0439 0.866379C27.1889 2.06049 27.2944 3.16374 27.3603 4.17614C27.3998 4.52658 27.2482 4.73425 26.9054 4.79915C26.8659 4.79915 26.4967 4.88352 25.798 5.05225Z" fill="#90D1BE"/>
<path d="M44.2473 13.2682C43.9177 14.696 43.7133 15.5202 43.6342 15.7408C43.476 16.1821 43.2123 16.5261 42.8432 16.7727C42.4872 17.0193 42.006 17.2464 41.3995 17.4541C40.3844 17.8175 39.5604 17.9993 38.9275 17.9993C38.1761 18.0122 37.3323 17.8565 36.3962 17.532C35.0646 17.0518 33.8187 16.5131 32.6586 15.916C31.9862 15.5656 31.439 15.001 31.0172 14.2222C30.5953 13.4305 30.3514 12.5609 30.2854 11.6134C30.1404 9.3809 30.6744 6.86937 31.8873 4.07879C31.94 3.96198 32.0389 3.79973 32.1839 3.59206C32.329 3.38439 32.4147 3.26109 32.441 3.22215C33.3243 1.88527 34.5571 1.00266 36.1391 0.574341C37.4839 0.223896 38.888 0.0746319 40.3514 0.12655C41.6303 0.178468 42.8498 0.561361 44.01 1.27523C44.0759 1.31417 44.1352 1.38556 44.188 1.48939C44.2407 1.58025 44.2539 1.65812 44.2275 1.72302C43.8715 3.07288 43.4958 4.41626 43.1003 5.75314C43.0871 5.80506 43.0212 5.85698 42.9025 5.90889C42.797 5.94783 42.7048 5.96081 42.6256 5.94783C42.1642 5.90889 41.037 5.77261 39.244 5.53898C38.4134 5.43514 37.741 5.4611 37.2268 5.61686C36.7258 5.75963 36.3237 6.07114 36.0205 6.55138C35.4799 7.43398 35.236 8.26466 35.2888 9.04343C35.3415 9.80922 35.6711 10.588 36.2776 11.3797C36.4226 11.5485 36.6138 11.7107 36.8511 11.8665C37.0884 12.0222 37.3191 12.1196 37.5432 12.1585C38.4529 12.3662 39.3033 12.3986 40.0943 12.2558C40.8458 12.139 41.3666 12.0806 41.6566 12.0806C42.4872 12.1066 43.2057 12.1455 43.8122 12.1974C43.8649 12.2104 43.9243 12.2623 43.9902 12.3532C44.0693 12.4311 44.1154 12.496 44.1286 12.5479C44.1418 12.5868 44.1352 12.8205 44.1088 13.2488L44.2473 13.2682Z" fill="#90D1BE"/>
<path d="M47.9926 0.36018C48.019 0.37316 48.0585 0.399119 48.1112 0.438057C48.164 0.476995 48.2167 0.509443 48.2695 0.535402C48.3222 0.561362 48.3683 0.574341 48.4079 0.574341C49.7527 0.444547 50.9062 0.483485 51.8687 0.691156C52.0137 0.717115 52.3433 0.723604 52.8575 0.710625C53.0025 0.697645 53.1014 0.723604 53.1541 0.788501C53.22 0.853399 53.253 0.963724 53.253 1.11948V6.23987L53.3914 6.33722C53.4442 6.2853 53.5233 6.21391 53.6287 6.12305C53.7342 6.01922 53.8265 5.92836 53.9056 5.85049C53.9979 5.75963 54.0704 5.68175 54.1231 5.61686C54.7296 4.82511 55.8173 3.39088 57.3862 1.31417C57.3994 1.30119 57.518 1.11948 57.7421 0.769032L62.5477 4.3903C62.4422 4.48115 62.0401 4.8316 61.3414 5.44163C60.6558 6.05167 60.1548 6.47999 59.8384 6.7266C59.4956 7.01215 59.199 7.30419 58.9485 7.60271C58.698 7.90124 58.4013 8.3036 58.0586 8.8098C57.729 9.29004 57.4916 9.62102 57.3466 9.80273C57.3071 9.85465 57.3071 9.93252 57.3466 10.0364C57.3862 10.1402 57.4257 10.2051 57.4653 10.2311C58.2695 11.0488 59.344 11.6977 60.6888 12.178C60.7547 12.2039 61.3677 12.4116 62.5279 12.801C62.5148 12.9308 62.495 13.1579 62.4686 13.4824C62.4422 13.4694 62.4225 13.4564 62.4093 13.4435C62.0401 14.1444 61.8358 14.5402 61.7962 14.6311C61.7699 14.709 61.6182 15.0983 61.3414 15.7992C61.1041 16.4093 60.9129 16.8765 60.7679 17.201C60.6228 17.5255 60.5042 17.7072 60.4119 17.7462C60.3328 17.7851 60.0955 17.7526 59.7 17.6488C59.1067 17.532 58.3222 17.2464 57.3466 16.7922C56.8061 16.5456 56.404 16.3638 56.1403 16.247C55.8766 16.1302 55.6789 16.0523 55.547 16.0134C55.4284 15.9745 55.1976 15.8901 54.8549 15.7603C54.5121 15.6435 54.1166 15.5007 53.6683 15.332C53.6683 16.3574 53.6749 16.9155 53.6881 17.0063C53.7144 17.3957 53.5167 17.6099 53.0948 17.6488C51.7764 17.7656 50.6228 17.7462 49.634 17.5904C49.3439 17.5515 48.8364 17.5904 48.1112 17.7072C47.7157 17.7591 47.4323 17.7137 47.2609 17.5709C47.0895 17.4411 47.0038 17.188 47.0038 16.8116C47.0433 13.5797 47.0829 11.542 47.1224 10.6983C47.1356 10.3998 47.2213 9.55612 47.3795 8.16732C47.5377 6.76554 47.6234 5.96081 47.6366 5.75314C47.7025 5.10417 47.8212 3.61153 47.9926 1.27523V0.36018Z" fill="#90D1BE"/>
<path d="M64.5241 0.223896C64.5504 0.223896 64.6757 0.191447 64.8998 0.12655C65.1239 0.0616525 65.2953 0.0292036 65.414 0.0292036H67.4707C68.5254 0.0292036 69.211 0.0227139 69.5274 0.00973453C69.8174 -0.00324484 70.0218 0.0486731 70.1404 0.165488C70.2591 0.269323 70.358 0.457525 70.4371 0.730094C70.8062 2.17081 71.2413 3.76729 71.7423 5.51951L71.8016 5.75314C71.9994 6.47999 72.118 6.89533 72.1576 6.99917C72.4345 6.37615 72.797 5.19502 73.2453 3.45578C73.6935 1.70355 74.0231 0.587321 74.2341 0.107081C76.238 0.0811215 77.3916 0.0681417 77.6949 0.0681417C77.7344 0.0681417 77.9717 0.0551624 78.4068 0.0292036C78.8551 -0.00973453 79.2044 -0.00973453 79.4549 0.0292036C79.7186 0.0551624 79.89 0.126549 79.9691 0.243365C80.035 0.373159 79.9955 0.574341 79.8504 0.84691C79.7713 1.00266 79.4945 1.6711 79.0199 2.85223C78.5584 4.03336 78.2816 4.71479 78.1893 4.8965C77.5037 6.19444 76.8181 7.4859 76.1326 8.77086C76.0271 8.97853 75.9216 9.14078 75.8162 9.25759C75.3943 9.68591 75.2097 10.2959 75.2624 11.0877C75.2888 11.4122 75.3086 12.457 75.3218 14.2222C75.3349 15.9745 75.3481 17.0063 75.3613 17.3178C74.8208 17.4606 73.9836 17.5515 72.8498 17.5904C71.7159 17.6293 70.8194 17.6099 70.1602 17.532L69.0725 17.4346C68.8616 14.6051 68.7891 12.2039 68.855 10.2311C68.9077 9.71187 68.8748 9.21216 68.7561 8.73193C68.6507 8.25169 68.532 7.88177 68.4002 7.62218C68.2683 7.36259 68.0574 6.99917 67.7673 6.53191C67.7146 6.45403 67.6816 6.39562 67.6684 6.35669C67.3257 5.81155 67.0818 5.4027 66.9367 5.13013C66.8049 4.85756 66.5478 4.29944 66.1655 3.45578C65.6513 2.33955 65.2294 1.4829 64.8998 0.885848C64.7416 0.626258 64.6164 0.405608 64.5241 0.223896Z" fill="#90D1BE"/>
</svg>
