<svg width="62" height="28" viewBox="0 0 62 28" fill="none" xmlns="http://www.w3.org/2000/svg">
<path d="M11.736 6.828C13.992 7.14 16.776 6.972 18.36 6.732C19.92 6.492 20.52 7.188 20.52 8.652C20.52 10.02 20.28 10.62 19.08 10.788C16.92 11.1 13.944 11.196 11.544 10.86C9.192 10.524 6.432 10.476 4.392 10.716C2.808 10.884 2.52 9.996 2.52 8.796C2.52 7.428 2.904 6.756 3.888 6.66C6.504 6.42 9.048 6.444 11.736 6.828ZM11.736 15.996C12.264 16.068 12.816 16.116 13.368 16.14C13.32 14.844 13.368 13.428 13.416 12.66C13.488 11.748 14.112 11.46 15.384 11.46C16.656 11.46 17.448 11.7 17.376 12.612C17.328 13.38 17.28 14.748 17.328 16.02L18.36 15.9C20.16 15.66 20.52 16.596 20.52 17.82C20.52 19.188 20.28 19.788 19.08 19.956C16.92 20.268 13.944 20.364 11.544 20.028C9.192 19.692 6.432 19.644 4.392 19.884C2.808 20.052 2.52 19.164 2.52 17.964C2.52 16.596 2.904 15.924 3.888 15.828L5.736 15.708C5.688 14.412 5.736 12.996 5.784 12.276C5.856 11.364 6.48 11.076 7.752 11.076C9.024 11.076 9.816 11.316 9.744 12.228C9.696 12.972 9.648 14.436 9.696 15.78C10.368 15.828 11.04 15.9 11.736 15.996ZM26.6391 23.964C26.7111 25.5 25.6791 25.644 24.4071 25.644C23.1351 25.644 22.2471 25.62 22.1751 24.084C21.9351 18.804 21.9351 9.156 22.1751 3.876C22.2471 2.34 23.1351 2.076 24.4071 2.076C25.6791 2.076 26.7111 2.268 26.6391 3.804C26.3991 9.084 26.3991 18.684 26.6391 23.964ZM41.3501 11.172C41.3741 10.764 41.1821 10.62 40.7501 10.692C37.5821 11.244 32.9501 11.22 29.3501 10.404C27.9341 10.092 27.7181 9.252 27.9101 7.956C28.1021 6.66 28.6061 5.916 30.1901 6.228C33.8381 6.972 37.6541 6.9 41.1101 6.348C44.5181 5.82 45.9821 7.26 45.8141 9.852C45.6941 11.652 45.6941 15.972 45.8141 19.212C45.8621 20.388 44.9021 20.724 43.4621 20.724C42.0221 20.724 41.3981 20.388 41.3501 19.212L41.2781 16.764C37.8701 17.22 32.9981 17.148 29.5901 16.524C28.1741 16.26 27.9581 15.492 28.1501 14.196C28.3421 12.9 28.8461 12.348 30.4301 12.588C33.8861 13.14 37.9181 13.14 41.2781 12.66L41.3501 11.172ZM52.0772 23.964C52.1492 25.5 51.1172 25.644 49.8452 25.644C48.5732 25.644 47.6852 25.62 47.6132 24.084C47.3732 18.804 47.3732 9.156 47.6132 3.876C47.6852 2.34 48.5732 2.076 49.8452 2.076C51.1172 2.076 52.1492 2.268 52.0772 3.804C51.8372 9.084 51.8372 18.684 52.0772 23.964Z" fill="#90D1BE"/>
</svg>
